<?xml version="1.0" standalone="no"?>
<!DOCTYPE svg PUBLIC "-//W3C//DTD SVG 20010904//EN"
 "http://www.w3.org/TR/2001/REC-SVG-20010904/DTD/svg10.dtd">
<svg version="1.0" xmlns="http://www.w3.org/2000/svg"
 width="512.000000pt" height="512.000000pt" viewBox="0 0 512.000000 512.000000"
 preserveAspectRatio="xMidYMid meet">
<metadata>
Created by potrace 1.14, written by Peter Selinger 2001-2017
</metadata>
<g transform="translate(0.000000,512.000000) scale(0.100000,-0.100000)"
fill="#000000" stroke="none">
<path d="M0 3360 c0 -968 3 -1760 6 -1760 3 0 27 17 53 39 66 55 178 139 204
152 34 19 169 124 197 154 29 31 36 22 -80 98 -122 79 -176 182 -174 332 1
103 22 170 79 247 90 122 310 227 565 268 69 12 252 9 305 -5 17 -4 26 8 60
82 104 227 277 427 502 581 61 43 68 51 68 81 0 23 7 39 24 53 23 18 24 22 12
51 -22 54 -23 80 -2 107 20 25 20 25 36 5 15 -20 16 -19 13 5 -3 25 -2 25 72
26 63 1 81 5 113 27 21 14 43 28 50 30 9 4 9 7 0 18 -7 7 -13 21 -13 31 0 21
26 23 82 8 54 -15 64 -60 12 -60 -28 0 -29 -6 -8 -48 17 -36 30 -38 114 -22
66 13 93 6 85 -21 -6 -17 -4 -18 21 -9 20 8 44 6 96 -6 66 -16 73 -16 117 0
55 19 81 13 81 -19 0 -20 9 -24 93 -40 50 -10 98 -20 106 -23 10 -4 13 1 9 22
-9 45 14 42 56 -7 36 -40 132 -97 165 -97 5 0 18 33 31 73 28 94 60 165 75
171 7 2 29 29 49 58 20 29 46 65 57 79 l21 26 -27 27 c-18 19 -24 32 -20 47 8
25 -16 77 -49 107 -30 25 -33 44 -10 66 32 33 128 34 163 2 28 -25 54 -19 71
16 17 36 61 54 92 37 12 -7 31 -6 58 2 22 7 43 9 47 5 13 -13 -12 -61 -34 -64
-12 -2 -24 -9 -27 -17 -7 -18 12 -85 25 -85 16 0 84 37 115 63 46 38 105 64
173 77 35 6 79 19 98 28 34 16 35 16 54 -7 17 -21 32 -24 185 -37 97 -9 175
-20 188 -28 13 -9 67 -16 151 -19 87 -3 158 -12 215 -27 61 -16 102 -21 147
-17 40 3 66 1 71 -7 27 -36 35 -147 11 -162 -17 -10 -9 -30 28 -78 46 -60 39
-66 -78 -66 -81 0 -88 -2 -103 -25 -23 -34 -22 -87 2 -83 45 7 57 -40 17 -66
-32 -21 -35 -20 -35 9 0 16 -6 25 -15 25 -8 0 -15 -5 -15 -12 0 -6 -6 -19 -14
-27 -8 -9 -17 -30 -21 -48 -5 -25 -2 -34 12 -42 12 -6 25 -6 34 0 24 15 39 10
39 -15 0 -37 52 -76 103 -76 23 0 51 -7 61 -15 11 -8 28 -15 38 -15 17 0 18
20 18 370 0 366 0 370 -22 395 -12 14 -28 25 -35 25 -8 0 -16 7 -19 15 -4 8
-12 15 -19 15 -7 0 -18 12 -24 28 -6 15 -19 38 -30 52 -11 14 -23 41 -26 61
-6 34 -5 36 32 52 21 9 61 22 88 29 l50 14 3 230 c2 180 0 231 -10 232 -7 1
-35 3 -61 5 -27 2 -51 7 -55 13 -4 5 -19 17 -34 27 -26 16 -174 17 -2493 17
l-2465 0 0 -1760z m2640 680 c0 -5 -2 -10 -4 -10 -3 0 -8 5 -11 10 -3 6 -1 10
4 10 6 0 11 -4 11 -10z m231 -170 c37 -20 22 -37 -28 -33 -27 2 -54 6 -60 8
-23 8 -14 24 15 28 49 7 53 7 73 -3z m-2366 -54 c41 -17 45 -38 11 -54 -51
-23 -157 15 -143 52 8 21 84 22 132 2z"/>
<path d="M3815 4031 c-45 -4 -88 -15 -120 -32 -28 -14 -68 -32 -89 -39 -38
-12 -155 -101 -215 -163 -36 -38 -49 -80 -58 -188 l-5 -66 73 -59 c165 -130
300 -295 399 -485 l60 -117 58 -22 c31 -13 78 -40 104 -62 50 -41 74 -45 173
-32 46 7 47 7 41 38 -9 41 -14 45 -69 47 -67 3 -76 20 -30 56 31 25 43 29 67
22 55 -15 63 9 10 34 l-35 17 21 30 c12 17 19 37 16 45 -3 8 5 26 17 40 20 23
25 24 61 14 34 -9 42 -8 65 10 42 34 91 53 120 46 14 -4 38 -20 53 -38 32 -35
31 -32 18 -58 -13 -23 -43 -25 -60 -4 -7 8 -26 15 -42 15 -26 0 -28 -2 -17
-22 10 -18 8 -24 -7 -35 -10 -7 -12 -13 -5 -13 7 0 10 -4 6 -10 -7 -11 46 -40
75 -40 12 0 35 -9 50 -20 31 -22 47 -18 102 26 24 19 26 25 23 87 -1 37 -9 96
-16 131 -11 56 -10 70 3 104 15 39 15 40 -8 51 -13 6 -26 22 -29 38 -4 15 -13
49 -21 75 -8 26 -14 53 -14 60 0 16 -61 78 -76 78 -5 0 -26 11 -46 25 -20 14
-43 22 -52 19 -16 -6 -42 -107 -29 -112 59 -20 83 -64 42 -77 -20 -7 -114 -1
-186 12 -38 6 -44 23 -9 23 23 0 24 4 28 67 4 80 -13 113 -72 143 -22 11 -40
25 -40 30 0 5 32 19 70 31 65 21 94 49 51 49 -10 0 -29 8 -42 19 -13 10 -34
21 -45 25 -14 4 -30 26 -43 56 -18 43 -31 55 -91 90 -77 45 -117 52 -235 41z
m745 -536 c0 -9 -9 -15 -25 -15 -24 0 -32 10 -18 23 12 13 43 7 43 -8z m-200
-195 c0 -5 -11 -10 -25 -10 -14 0 -25 5 -25 10 0 6 11 10 25 10 14 0 25 -4 25
-10z m141 0 c10 -6 19 -20 19 -30 0 -24 -45 -27 -74 -5 -39 30 7 60 55 35z
m159 -291 c0 -19 -1 -19 -16 -5 -8 9 -12 20 -9 26 9 15 25 2 25 -21z m-563
-65 c8 -20 -8 -36 -26 -25 -15 10 -8 41 9 41 6 0 13 -7 17 -16z"/>
<path d="M4690 3330 c0 -13 11 -13 30 0 12 8 11 10 -7 10 -13 0 -23 -4 -23
-10z"/>
<path d="M4671 2917 c-6 -16 -11 -31 -11 -34 0 -7 49 -53 56 -53 10 0 2 37
-15 75 l-19 40 -11 -28z"/>
<path d="M4555 2890 c-3 -5 -21 -10 -38 -10 -28 -1 -29 -2 -14 -11 42 -25 95
-15 84 15 -7 18 -23 21 -32 6z"/>
<path d="M4476 2853 c-8 -8 -14 -10 -47 -12 -12 0 -23 -10 -26 -21 -3 -11 -14
-20 -24 -20 -12 0 -19 -7 -19 -20 0 -21 31 -32 122 -45 35 -4 53 -2 73 11 36
23 31 42 -15 60 -27 11 -40 22 -40 35 0 20 -11 25 -24 12z"/>
<path d="M4593 2737 c0 -22 5 -26 59 -37 41 -9 68 -22 84 -39 28 -30 30 -39 8
-48 -8 -3 -13 -12 -10 -19 8 -20 -10 -26 -25 -8 -10 12 -23 14 -63 8 -28 -3
-55 -13 -61 -20 -5 -8 -25 -15 -43 -17 -18 -2 -32 -7 -32 -11 1 -4 -8 -16 -20
-26 l-22 -19 23 -5 c13 -3 79 -10 147 -16 117 -10 192 -29 192 -48 0 -15 -117
-42 -187 -43 -138 -1 -192 -17 -193 -56 0 -14 18 -20 94 -29 56 -6 58 -6 52
14 -7 21 22 62 43 62 16 0 39 -40 34 -60 -5 -19 2 -21 92 -35 49 -7 70 -19 61
-34 -9 -14 -72 -31 -126 -32 -46 -1 -107 -15 -80 -19 8 -1 54 -3 102 -4 77 -1
89 -4 112 -25 16 -15 26 -35 26 -53 0 -33 -8 -34 -57 -8 -21 11 -43 20 -50 20
-18 0 -16 -36 3 -66 13 -18 20 -22 30 -14 9 9 15 6 24 -10 14 -26 6 -38 -14
-21 -21 18 -25 -5 -8 -53 18 -55 49 -83 72 -68 18 11 21 8 49 -62 9 -23 9 -33
-3 -50 -12 -20 -12 -25 3 -43 9 -11 28 -28 44 -38 16 -10 27 -26 27 -39 0 -12
9 -48 21 -80 14 -41 17 -62 10 -69 -14 -14 -14 -37 -1 -37 11 0 60 81 60 99 0
7 11 35 25 63 24 48 25 56 25 249 0 183 -2 202 -22 243 -20 42 -20 46 -5 79
24 49 21 69 -13 102 -16 16 -30 34 -30 39 0 18 -81 66 -111 66 -20 0 -53 -64
-45 -86 6 -15 -23 -56 -34 -49 -20 13 -21 83 -1 155 31 112 27 160 -12 153
-12 -2 -27 0 -32 4 -19 14 -45 62 -45 82 0 11 -10 32 -22 46 -19 21 -35 27
-89 32 -66 6 -66 5 -66 -20z"/>
<path d="M4180 2540 c0 -5 11 -10 25 -10 14 0 25 5 25 10 0 6 -11 10 -25 10
-14 0 -25 -4 -25 -10z"/>
<path d="M4210 2340 c37 -12 82 -12 75 0 -3 6 -27 10 -53 9 -38 -1 -42 -2 -22
-9z"/>
<path d="M4160 2160 c0 -10 63 -30 98 -30 15 0 22 6 22 20 0 18 -7 20 -60 20
-33 0 -60 -4 -60 -10z"/>
<path d="M557 1911 c-6 -24 14 -33 51 -25 44 11 46 16 12 30 -44 19 -57 18
-63 -5z"/>
<path d="M4293 1894 c-3 -9 -13 -12 -29 -8 -15 4 -24 2 -24 -6 0 -8 -9 -10
-24 -6 -16 4 -26 1 -30 -9 -3 -9 -12 -12 -22 -8 -10 4 -22 -1 -30 -11 -7 -10
-17 -15 -22 -12 -6 3 -8 -2 -5 -14 5 -17 0 -20 -31 -20 -43 0 -116 -30 -116
-47 0 -7 -7 -13 -15 -13 -10 0 -15 -10 -15 -30 0 -16 5 -30 10 -30 6 0 10 6
10 14 0 7 7 19 15 26 23 19 65 -12 65 -50 0 -34 -13 -45 -30 -25 -16 19 -30
19 -30 0 0 -8 9 -15 20 -15 11 0 23 -7 27 -16 3 -8 16 -19 28 -24 16 -6 25
-20 30 -46 7 -40 10 -36 -64 -92 -23 -18 -24 -22 -12 -50 7 -17 9 -36 5 -44
-9 -14 -11 -29 -14 -170 -1 -76 -5 -98 -16 -98 -8 0 -14 -7 -14 -16 0 -9 6
-14 13 -11 17 6 46 -46 45 -81 -1 -34 18 -88 40 -114 17 -20 10 -48 -12 -48
-18 0 -30 -40 -23 -76 6 -34 -27 -54 -38 -21 l-8 22 -4 -22 c-2 -12 -11 -27
-19 -33 -20 -17 -18 -33 7 -48 18 -12 24 -11 36 1 13 13 17 13 34 -1 10 -9 19
-25 19 -35 0 -16 -5 -18 -34 -13 -20 4 -37 2 -41 -4 -3 -5 -23 -10 -44 -10
-42 0 -68 -16 -73 -44 -2 -11 -17 -24 -37 -31 -29 -9 -31 -12 -17 -24 14 -12
14 -16 0 -42 -8 -16 -19 -29 -24 -29 -6 0 -10 -6 -10 -14 0 -15 21 -26 51 -26
10 0 19 -4 19 -10 0 -5 9 -10 19 -10 28 0 31 -11 12 -44 -22 -38 -32 -41 -59
-16 -39 37 -56 20 -26 -26 22 -33 10 -43 -27 -22 -16 9 -29 13 -29 8 0 -6 5
-10 10 -10 17 0 11 -26 -10 -45 -16 -15 -26 -16 -58 -8 -21 6 -47 7 -58 3 -10
-4 -62 -2 -114 5 -52 6 -108 7 -125 3 -16 -4 -65 -12 -108 -19 l-77 -12 6 -36
c11 -60 21 -72 50 -61 15 6 60 7 104 4 61 -5 88 -3 119 10 52 20 164 30 215
19 30 -6 43 -16 55 -40 14 -28 20 -31 54 -28 43 4 72 21 111 62 14 15 75 80
135 143 158 167 301 332 301 347 0 7 -7 13 -15 13 -27 0 -16 31 15 43 17 6 30
17 30 25 0 7 5 23 12 35 18 32 19 80 2 73 -8 -3 -21 -9 -29 -12 -8 -3 -15 -2
-15 4 0 6 13 13 29 17 28 6 30 10 28 48 0 23 -5 45 -11 49 -7 4 -6 15 3 31 15
28 11 102 -6 102 -17 0 -20 6 -27 52 -5 35 -2 46 20 73 22 25 25 37 20 68 -4
30 -1 45 19 74 14 21 25 40 25 43 0 4 -14 20 -30 35 -38 35 -32 51 31 92 27
17 49 36 49 43 0 17 -22 35 -44 35 -45 1 -77 105 -37 118 10 3 12 0 8 -13 -8
-19 21 -75 39 -75 17 0 44 34 44 58 0 12 -8 23 -20 27 -11 3 -20 12 -20 19 0
7 9 25 20 39 25 32 25 39 -3 65 -27 26 -40 27 -57 7 -17 -20 -26 -19 -51 6
-19 19 -19 22 -5 38 15 16 15 19 1 31 -8 7 -15 22 -15 34 0 16 -7 21 -26 22
-14 1 -28 -4 -31 -12z m-215 -136 c15 -15 16 -45 1 -54 -6 -3 -29 2 -51 12
l-40 18 22 18 c26 21 51 23 68 6z m-32 -525 c12 -17 14 -17 27 1 19 26 50 14
45 -16 -2 -19 -9 -23 -36 -21 -30 1 -61 24 -62 46 0 13 12 8 26 -10z m-376
-1083 c0 -5 -4 -10 -10 -10 -5 0 -10 5 -10 10 0 6 5 10 10 10 6 0 10 -4 10
-10z"/>
<path d="M710 1868 c-14 -6 -63 -29 -110 -50 -107 -50 -113 -53 -178 -78 -30
-11 -74 -36 -99 -55 -25 -19 -51 -35 -57 -35 -6 0 -41 -26 -77 -58 -36 -31
-94 -77 -128 -101 l-61 -44 0 -381 1 -381 37 -17 c20 -10 73 -51 117 -93 71
-68 80 -74 94 -60 9 9 11 15 4 15 -16 0 -54 68 -42 75 5 4 57 -41 115 -98
l107 -104 -21 -29 c-11 -16 -23 -39 -27 -51 -7 -24 -7 -24 55 -28 292 -18 379
-71 380 -232 l0 -63 436 0 c409 0 439 1 468 19 17 10 59 21 94 24 52 4 70 2
98 -15 26 -16 35 -17 38 -6 2 7 7 101 10 208 7 227 11 276 31 344 8 28 21 110
30 181 8 72 19 151 24 177 10 55 8 56 -64 83 -135 48 -310 156 -442 271 -33
30 -68 54 -77 54 -8 0 -37 8 -63 19 -26 10 -72 21 -101 25 -29 4 -59 9 -67 12
-10 4 -18 -3 -25 -20 -5 -14 -16 -26 -24 -26 -7 0 -27 -7 -42 -15 -16 -8 -41
-15 -55 -15 -15 0 -44 -7 -65 -16 -34 -15 -50 -15 -128 -4 -91 12 -136 26
-136 42 0 4 -7 8 -15 8 -19 0 -19 2 5 43 22 38 48 47 131 47 26 0 60 5 75 10
20 8 29 8 35 -1 9 -15 102 -6 107 10 6 18 96 60 154 72 29 6 54 12 56 14 1 1
-27 58 -63 127 l-65 126 -53 6 c-41 5 -62 3 -96 -13 -24 -10 -50 -17 -58 -14
-14 6 -14 6 -18 41 -3 32 -5 33 -87 43 -40 4 -86 10 -103 13 -16 3 -41 0 -55
-6z"/>
<path d="M4920 1454 c1 -20 19 -37 34 -31 17 7 22 27 7 27 -5 0 -16 3 -25 6
-9 3 -16 2 -16 -2z"/>
<path d="M3310 1150 c-14 -11 -20 -20 -14 -20 7 0 22 9 35 20 31 25 12 26 -21
0z"/>
<path d="M3146 1038 c-10 -32 -16 -100 -10 -110 10 -15 55 88 47 107 -6 18
-32 20 -37 3z"/>
<path d="M3225 930 c-3 -5 -1 -10 4 -10 6 0 11 5 11 10 0 6 -2 10 -4 10 -3 0
-8 -4 -11 -10z"/>
<path d="M3238 862 c-16 -9 -28 -24 -28 -34 0 -18 -9 -40 -39 -98 l-19 -34 -7
52 c-4 29 -11 55 -16 58 -5 3 -6 17 -3 31 5 18 3 24 -5 19 -6 -4 -11 -15 -11
-25 0 -10 -7 -32 -16 -49 -8 -17 -18 -47 -21 -65 -5 -35 33 -223 48 -233 4 -2
16 8 26 23 9 15 28 38 40 50 31 30 29 40 -12 57 -19 8 -35 18 -35 21 0 15 22
45 29 40 5 -2 14 2 21 10 7 8 27 15 45 15 47 0 138 19 150 31 7 7 5 13 -7 20
-10 6 -18 18 -18 28 0 10 -11 23 -25 29 -14 6 -25 16 -25 22 0 11 -31 50 -40
50 -3 0 -17 -8 -32 -18z m36 -27 c-4 -8 -10 -12 -15 -9 -11 6 -2 24 11 24 5 0
7 -7 4 -15z"/>
<path d="M3918 853 c-4 -19 37 -47 53 -37 15 9 10 33 -10 44 -28 14 -39 13
-43 -7z"/>
<path d="M3155 820 c-3 -5 -2 -10 4 -10 5 0 13 5 16 10 3 6 2 10 -4 10 -5 0
-13 -4 -16 -10z"/>
<path d="M3820 771 c0 -14 58 -32 66 -20 3 6 3 13 0 16 -10 10 -66 13 -66 4z"/>
<path d="M3400 657 c-19 -7 -40 -15 -47 -20 -6 -4 -14 -3 -17 2 -3 5 -25 7
-49 4 -69 -8 -73 -11 -48 -34 17 -17 29 -19 65 -14 26 4 46 3 50 -3 7 -11 26
-7 116 27 30 12 66 21 79 21 16 0 21 4 16 9 -16 16 -127 21 -165 8z"/>
<path d="M37 489 c-9 -5 -22 -7 -27 -4 -6 4 -10 -20 -10 -63 l0 -69 34 -6 c19
-3 51 -13 71 -23 34 -16 36 -16 50 2 8 11 15 27 15 37 0 9 5 17 10 17 6 0 10
20 10 44 0 41 -2 45 -32 54 -57 18 -102 22 -121 11z"/>
<path d="M3220 481 c-20 -3 -49 -15 -64 -27 l-29 -21 23 -99 c30 -133 29 -129
42 -116 6 6 17 8 25 5 7 -3 23 3 33 12 14 13 39 19 84 20 35 1 70 6 77 11 7 4
29 10 49 14 30 4 36 10 38 34 3 25 1 28 -15 21 -60 -25 -113 -10 -113 32 0 16
-6 23 -20 23 -11 0 -20 -7 -20 -15 0 -21 -34 -19 -55 5 -13 15 -16 30 -13 65
3 25 3 44 -1 44 -3 -1 -22 -5 -41 -8z"/>
<path d="M5104 469 c-3 -6 -1 -16 5 -22 8 -8 11 -5 11 11 0 24 -5 28 -16 11z"/>
<path d="M4950 387 c-28 -43 -24 -84 14 -123 34 -35 35 -35 46 -14 10 19 8 22
-20 33 -21 8 -29 16 -24 27 11 27 15 88 6 94 -4 2 -14 -5 -22 -17z"/>
<path d="M5020 396 c0 -8 5 -18 10 -21 6 -3 10 3 10 14 0 12 -4 21 -10 21 -5
0 -10 -6 -10 -14z"/>
<path d="M5085 366 c-11 -6 -23 -15 -27 -21 -10 -14 3 -28 15 -16 17 17 26 13
20 -9 -3 -10 -14 -22 -25 -26 -14 -4 -18 -12 -15 -26 4 -14 0 -22 -13 -25 -10
-3 -21 -14 -23 -25 -4 -15 -11 -19 -24 -13 -38 16 -49 14 -71 -15 -19 -25 -21
-32 -10 -49 9 -15 19 -19 37 -14 20 5 23 3 18 -11 -4 -9 -10 -23 -13 -31 -3
-8 -1 -15 5 -15 6 0 11 -4 11 -9 0 -11 -31 4 -77 37 -36 26 -67 20 -57 -10 5
-18 2 -19 -40 -13 -35 6 -51 4 -64 -7 -9 -8 -25 -18 -34 -21 -25 -9 -22 -20 9
-34 19 -9 87 -13 220 -13 l193 0 0 184 c0 102 -3 187 -7 189 -5 3 -17 0 -28
-7z"/>
<path d="M1 253 c0 -38 3 -61 6 -53 14 36 25 41 45 20 26 -28 16 -50 -22 -50
l-30 0 0 -85 0 -85 105 0 105 0 -11 27 c-5 14 -16 38 -23 52 -7 14 -18 39 -22
56 -6 18 -18 31 -29 33 -31 6 -44 21 -51 61 -7 33 -49 91 -66 91 -5 0 -8 -30
-7 -67z"/>
<path d="M3553 32 c-17 -2 -37 -10 -43 -18 -11 -12 7 -14 131 -13 79 1 131 4
114 6 -16 3 -37 11 -46 19 -13 11 -26 13 -56 6 -22 -5 -47 -6 -54 -3 -8 4 -28
5 -46 3z"/>
<path d="M3253 23 c-13 -2 -23 -9 -23 -14 0 -5 49 -9 112 -9 61 0 108 3 104 7
-4 4 -33 8 -64 8 -31 1 -68 4 -82 7 -14 3 -35 4 -47 1z"/>
</g>
</svg>
